<svg width="56" height="56" viewBox="0 0 56 56" fill="none" xmlns="http://www.w3.org/2000/svg">
<path fill-rule="evenodd" clip-rule="evenodd" d="M28 53.4456C42.0532 53.4456 53.4456 42.0532 53.4456 28C53.4456 13.9468 42.0532 2.55439 28 2.55439C13.9468 2.55439 2.55439 13.9468 2.55439 28C2.55439 42.0532 13.9468 53.4456 28 53.4456ZM28 55.5088C43.1927 55.5088 55.5088 43.1927 55.5088 28C55.5088 12.8073 43.1927 0.491228 28 0.491228C12.8073 0.491228 0.491228 12.8073 0.491228 28C0.491228 43.1927 12.8073 55.5088 28 55.5088Z" fill="white"/>
<path fill-rule="evenodd" clip-rule="evenodd" d="M28 52.9544C41.7819 52.9544 52.9544 41.7819 52.9544 28C52.9544 14.2181 41.7819 3.04561 28 3.04561C14.2181 3.04561 3.04561 14.2181 3.04561 28C3.04561 41.7819 14.2181 52.9544 28 52.9544ZM56 28C56 43.464 43.464 56 28 56C12.536 56 0 43.464 0 28C0 12.536 12.536 0 28 0C43.464 0 56 12.536 56 28ZM53.4456 28C53.4456 42.0532 42.0532 53.4456 28 53.4456C13.9468 53.4456 2.55439 42.0532 2.55439 28C2.55439 13.9468 13.9468 2.55439 28 2.55439C42.0532 2.55439 53.4456 13.9468 53.4456 28ZM55.5088 28C55.5088 43.1927 43.1927 55.5088 28 55.5088C12.8073 55.5088 0.491228 43.1927 0.491228 28C0.491228 12.8073 12.8073 0.491228 28 0.491228C43.1927 0.491228 55.5088 12.8073 55.5088 28Z" fill="white"/>
<path fill-rule="evenodd" clip-rule="evenodd" d="M21.5 21.5V35.5H24.5V21.5H21.5ZM20 19C19.4477 19 19 19.4477 19 20V37C19 37.5523 19.4477 38 20 38H26C26.5523 38 27 37.5523 27 37V20C27 19.4477 26.5523 19 26 19H20Z" fill="white"/>
<path fill-rule="evenodd" clip-rule="evenodd" d="M31.5 21.5V35.5H34.5V21.5H31.5ZM30 19C29.4477 19 29 19.4477 29 20V37C29 37.5523 29.4477 38 30 38H36C36.5523 38 37 37.5523 37 37V20C37 19.4477 36.5523 19 36 19H30Z" fill="white"/>
</svg>
