<svg width="56" height="56" viewBox="0 0 56 56" fill="none" xmlns="http://www.w3.org/2000/svg">
<path fill-rule="evenodd" clip-rule="evenodd" d="M28 53.4456C42.0532 53.4456 53.4456 42.0532 53.4456 28C53.4456 13.9468 42.0532 2.55439 28 2.55439C13.9468 2.55439 2.55439 13.9468 2.55439 28C2.55439 42.0532 13.9468 53.4456 28 53.4456ZM28 55.5088C43.1927 55.5088 55.5088 43.1927 55.5088 28C55.5088 12.8073 43.1927 0.491228 28 0.491228C12.8073 0.491228 0.491228 12.8073 0.491228 28C0.491228 43.1927 12.8073 55.5088 28 55.5088Z" fill="white"/>
<path fill-rule="evenodd" clip-rule="evenodd" d="M28 52.9544C41.7819 52.9544 52.9544 41.7819 52.9544 28C52.9544 14.2181 41.7819 3.04561 28 3.04561C14.2181 3.04561 3.04561 14.2181 3.04561 28C3.04561 41.7819 14.2181 52.9544 28 52.9544ZM56 28C56 43.464 43.464 56 28 56C12.536 56 0 43.464 0 28C0 12.536 12.536 0 28 0C43.464 0 56 12.536 56 28ZM53.4456 28C53.4456 42.0532 42.0532 53.4456 28 53.4456C13.9468 53.4456 2.55439 42.0532 2.55439 28C2.55439 13.9468 13.9468 2.55439 28 2.55439C42.0532 2.55439 53.4456 13.9468 53.4456 28ZM55.5088 28C55.5088 43.1927 43.1927 55.5088 28 55.5088C12.8073 55.5088 0.491228 43.1927 0.491228 28C0.491228 12.8073 12.8073 0.491228 28 0.491228C43.1927 0.491228 55.5088 12.8073 55.5088 28Z" fill="white"/>
<path fill-rule="evenodd" clip-rule="evenodd" d="M35.2842 28L24.5615 35.1485V20.8515L35.2842 28ZM22.4983 18.2815C22.4983 17.7322 23.1105 17.4046 23.5675 17.7093L38.1453 27.4278C38.5536 27.7 38.5536 28.3 38.1453 28.5722L23.5675 38.2907C23.1105 38.5954 22.4983 38.2678 22.4983 37.7185V18.2815Z" fill="white"/>
<path fill-rule="evenodd" clip-rule="evenodd" d="M35.2842 28L24.5615 20.8515V35.1485L35.2842 28ZM34.3986 28L25.0527 21.7694V34.2306L34.3986 28ZM22.0071 18.2815C22.0071 17.3399 23.0565 16.7782 23.84 17.3006L38.4178 27.0191C39.1177 27.4857 39.1177 28.5143 38.4178 28.9809L23.84 38.6994C23.0565 39.2218 22.0071 38.6601 22.0071 37.7185V18.2815ZM23.5675 17.7093C23.1105 17.4046 22.4983 17.7322 22.4983 18.2815V37.7185C22.4983 38.2678 23.1105 38.5954 23.5675 38.2907L38.1453 28.5722C38.5536 28.3 38.5536 27.7 38.1453 27.4278L23.5675 17.7093Z" fill="white"/>
</svg>
