<svg width="22" height="22" viewBox="0 0 22 22" fill="none" xmlns="http://www.w3.org/2000/svg">
<path d="M13.9453 0.250001C12.5778 0.24998 11.4754 0.249964 10.6085 0.366524C9.70836 0.487541 8.95048 0.746434 8.34857 1.34835C7.82363 1.87328 7.55839 2.51836 7.41916 3.27635C7.28387 4.01291 7.25799 4.9143 7.25196 5.99583C7.24966 6.41003 7.58357 6.74768 7.99778 6.74999C8.41199 6.7523 8.74964 6.41838 8.75194 6.00418C8.75803 4.91068 8.78643 4.1356 8.89448 3.54735C8.99859 2.98054 9.16577 2.65246 9.40923 2.40901C9.68599 2.13225 10.0746 1.9518 10.8083 1.85315C11.5637 1.75159 12.5648 1.75 14.0002 1.75H15.0002C16.4356 1.75 17.4367 1.75159 18.1921 1.85315C18.9259 1.9518 19.3144 2.13225 19.5912 2.40901C19.868 2.68577 20.0484 3.07435 20.1471 3.80812C20.2486 4.56347 20.2502 5.56459 20.2502 7V15C20.2502 16.4354 20.2486 17.4365 20.1471 18.1919C20.0484 18.9257 19.868 19.3142 19.5912 19.591C19.3144 19.8678 18.9259 20.0482 18.1921 20.1469C17.4367 20.2484 16.4356 20.25 15.0002 20.25H14.0002C12.5648 20.25 11.5637 20.2484 10.8083 20.1469C10.0746 20.0482 9.68599 19.8678 9.40923 19.591C9.16577 19.3475 8.99859 19.0195 8.89448 18.4527C8.78643 17.8644 8.75803 17.0893 8.75194 15.9958C8.74964 15.5816 8.41199 15.2477 7.99778 15.25C7.58357 15.2523 7.24966 15.59 7.25196 16.0042C7.25799 17.0857 7.28387 17.9871 7.41916 18.7236C7.55839 19.4816 7.82363 20.1267 8.34857 20.6517C8.95048 21.2536 9.70836 21.5125 10.6085 21.6335C11.4754 21.75 12.5778 21.75 13.9453 21.75H15.0551C16.4227 21.75 17.525 21.75 18.392 21.6335C19.2921 21.5125 20.0499 21.2536 20.6519 20.6517C21.2538 20.0497 21.5127 19.2919 21.6337 18.3918C21.7503 17.5248 21.7502 16.4225 21.7502 15.0549V6.94513C21.7502 5.57754 21.7503 4.47522 21.6337 3.60825C21.5127 2.70814 21.2538 1.95027 20.6519 1.34835C20.0499 0.746434 19.2921 0.487541 18.392 0.366524C17.525 0.249964 16.4227 0.24998 15.0551 0.250001H13.9453Z" fill="#AAAAAA"/>
<path d="M1.00098 10.249C0.586763 10.249 0.250977 10.5848 0.250977 10.999C0.250977 11.4132 0.586763 11.749 1.00098 11.749L12.9735 11.749L11.0129 13.4296C10.6984 13.6991 10.662 14.1726 10.9315 14.4871C11.2011 14.8016 11.6746 14.838 11.9891 14.5685L15.4891 11.5685C15.6553 11.426 15.751 11.218 15.751 10.999C15.751 10.7801 15.6553 10.5721 15.4891 10.4296L11.9891 7.42958C11.6746 7.16002 11.2011 7.19644 10.9315 7.51093C10.662 7.82543 10.6984 8.2989 11.0129 8.56847L12.9735 10.249L1.00098 10.249Z" fill="#AAAAAA"/>
</svg>
