<svg width="28" height="28" viewBox="0 0 28 28" fill="none" xmlns="http://www.w3.org/2000/svg">
<path fill-rule="evenodd" clip-rule="evenodd" d="M14 26.7228C21.0266 26.7228 26.7228 21.0266 26.7228 14C26.7228 6.97339 21.0266 1.27719 14 1.27719C6.97339 1.27719 1.27719 6.97339 1.27719 14C1.27719 21.0266 6.97339 26.7228 14 26.7228ZM14 27.7544C21.5963 27.7544 27.7544 21.5963 27.7544 14C27.7544 6.40366 21.5963 0.245614 14 0.245614C6.40366 0.245614 0.245614 6.40366 0.245614 14C0.245614 21.5963 6.40366 27.7544 14 27.7544Z" fill="#000080"/>
<path fill-rule="evenodd" clip-rule="evenodd" d="M14 26.4772C20.891 26.4772 26.4772 20.891 26.4772 14C26.4772 7.10904 20.891 1.52281 14 1.52281C7.10904 1.52281 1.52281 7.10904 1.52281 14C1.52281 20.891 7.10904 26.4772 14 26.4772ZM28 14C28 21.732 21.732 28 14 28C6.26801 28 0 21.732 0 14C0 6.26801 6.26801 0 14 0C21.732 0 28 6.26801 28 14ZM26.7228 14C26.7228 21.0266 21.0266 26.7228 14 26.7228C6.97339 26.7228 1.27719 21.0266 1.27719 14C1.27719 6.97339 6.97339 1.27719 14 1.27719C21.0266 1.27719 26.7228 6.97339 26.7228 14ZM27.7544 14C27.7544 21.5963 21.5963 27.7544 14 27.7544C6.40366 27.7544 0.245614 21.5963 0.245614 14C0.245614 6.40366 6.40366 0.245614 14 0.245614C21.5963 0.245614 27.7544 6.40366 27.7544 14Z" fill="#000080"/>
<path fill-rule="evenodd" clip-rule="evenodd" d="M17.6421 14L12.2807 17.5742V10.4258L17.6421 14ZM11.2492 9.14075C11.2492 8.86611 11.5552 8.7023 11.7838 8.85465L19.0726 13.7139C19.2768 13.85 19.2768 14.15 19.0726 14.2861L11.7838 19.1454C11.5552 19.2977 11.2492 19.1339 11.2492 18.8592V9.14075Z" fill="#000080"/>
<path fill-rule="evenodd" clip-rule="evenodd" d="M17.6421 14L12.2807 10.4258V17.5742L17.6421 14ZM17.1993 14L12.5264 10.8847V17.1153L17.1993 14ZM11.0036 9.14075C11.0036 8.66994 11.5283 8.38912 11.92 8.65028L19.2089 13.5095C19.5589 13.7429 19.5589 14.2571 19.2089 14.4905L11.92 19.3497C11.5283 19.6109 11.0036 19.3301 11.0036 18.8592V9.14075ZM11.7838 8.85465C11.5552 8.7023 11.2492 8.86611 11.2492 9.14075V18.8592C11.2492 19.1339 11.5552 19.2977 11.7838 19.1454L19.0726 14.2861C19.2768 14.15 19.2768 13.85 19.0726 13.7139L11.7838 8.85465Z" fill="#000080"/>
</svg>
