<svg width="28" height="28" viewBox="0 0 28 28" fill="none" xmlns="http://www.w3.org/2000/svg">
<path fill-rule="evenodd" clip-rule="evenodd" d="M14 9.625C11.5837 9.625 9.62496 11.5838 9.62496 14C9.62496 16.4162 11.5837 18.375 14 18.375C16.4162 18.375 18.375 16.4162 18.375 14C18.375 11.5838 16.4162 9.625 14 9.625ZM11.375 14C11.375 12.5503 12.5502 11.375 14 11.375C15.4497 11.375 16.625 12.5503 16.625 14C16.625 15.4498 15.4497 16.625 14 16.625C12.5502 16.625 11.375 15.4498 11.375 14Z" fill="#111111"/>
<path fill-rule="evenodd" clip-rule="evenodd" d="M13.9705 1.45834C13.452 1.45833 13.0191 1.45832 12.6637 1.48257C12.2937 1.50781 11.9443 1.56223 11.6055 1.70256C10.8194 2.02818 10.1948 2.65276 9.86917 3.43889C9.69965 3.84815 9.65374 4.27947 9.63621 4.7483C9.62211 5.12516 9.43192 5.4396 9.15123 5.60165C8.87055 5.7637 8.50315 5.77119 8.16973 5.59496C7.75495 5.37573 7.35846 5.19983 6.91926 5.14201C6.07564 5.03094 5.22245 5.25955 4.54738 5.77755C4.25646 6.00079 4.03461 6.27621 3.82778 6.58397C3.62909 6.87962 3.41265 7.25451 3.15339 7.70358L3.12393 7.75461C2.86465 8.20367 2.64821 8.57855 2.49152 8.89844C2.3284 9.23145 2.2008 9.56129 2.15294 9.92485C2.04188 10.7685 2.27049 11.6217 2.78848 12.2967C3.05812 12.6481 3.40864 12.9035 3.80582 13.1531C4.12523 13.3538 4.30248 13.6758 4.30247 14C4.30245 14.3241 4.1252 14.6461 3.80583 14.8468C3.4086 15.0964 3.05803 15.3518 2.78837 15.7032C2.27037 16.3783 2.04176 17.2315 2.15283 18.0751C2.20069 18.4386 2.32829 18.7685 2.4914 19.1015C2.64809 19.4214 2.86453 19.7962 3.1238 20.2453L3.15327 20.2963C3.41254 20.7454 3.62897 21.1203 3.82766 21.416C4.0345 21.7237 4.25635 21.9991 4.54727 22.2224C5.22234 22.7404 6.07553 22.969 6.91915 22.8579C7.35832 22.8001 7.75479 22.6242 8.16955 22.405C8.50301 22.2288 8.87046 22.2363 9.15118 22.3983C9.43189 22.5604 9.62211 22.8749 9.63621 23.2518C9.65374 23.7206 9.69966 24.1519 9.86917 24.5611C10.1948 25.3472 10.8194 25.9718 11.6055 26.2975C11.9443 26.4378 12.2937 26.4922 12.6637 26.5174C13.0191 26.5417 13.4519 26.5417 13.9705 26.5417H14.0294C14.548 26.5417 14.9808 26.5417 15.3362 26.5174C15.7062 26.4922 16.0556 26.4378 16.3944 26.2975C17.1805 25.9718 17.8051 25.3472 18.1307 24.5611C18.3003 24.1518 18.3462 23.7205 18.3637 23.2517C18.3778 22.8748 18.568 22.5604 18.8486 22.3983C19.1293 22.2362 19.4968 22.2287 19.8303 22.4049C20.245 22.6241 20.6415 22.8 21.0806 22.8578C21.9243 22.9689 22.7774 22.7403 23.4525 22.2223C23.7434 21.9991 23.9653 21.7236 24.1721 21.4159C24.3708 21.1202 24.5872 20.7454 24.8465 20.2963L24.8759 20.2453C25.1352 19.7962 25.3517 19.4213 25.5084 19.1014C25.6715 18.7684 25.7991 18.4386 25.847 18.075C25.958 17.2314 25.7294 16.3782 25.2114 15.7031C24.9418 15.3517 24.5912 15.0963 24.194 14.8467C23.8746 14.6461 23.6974 14.3241 23.6974 13.9999C23.6975 13.6758 23.8747 13.3539 24.194 13.1533C24.5913 12.9037 24.9419 12.6483 25.2115 12.2968C25.7295 11.6217 25.9581 10.7686 25.8471 9.92493C25.7992 9.56137 25.6716 9.23153 25.5085 8.89852C25.3518 8.57865 25.1354 8.2038 24.8761 7.75478L24.8467 7.70371C24.5874 7.25463 24.3709 6.8797 24.1722 6.58405C23.9654 6.27629 23.7436 6.00087 23.4526 5.77763C22.7776 5.25963 21.9244 5.03102 21.0807 5.14209C20.6416 5.19991 20.2451 5.37579 19.8304 5.59501C19.4969 5.77125 19.1294 5.76376 18.8487 5.60169C18.568 5.43962 18.3778 5.12514 18.3637 4.74823C18.3462 4.27943 18.3002 3.84814 18.1307 3.43889C17.8051 2.65276 17.1805 2.02818 16.3944 1.70256C16.0556 1.56223 15.7062 1.50781 15.3362 1.48257C14.9808 1.45832 14.5479 1.45833 14.0294 1.45834H13.9705ZM12.2752 3.31935C12.3652 3.28206 12.502 3.24767 12.7828 3.22851C13.0715 3.20881 13.4444 3.20834 13.9999 3.20834C14.5555 3.20834 14.9284 3.20881 15.2171 3.22851C15.4979 3.24767 15.6347 3.28206 15.7247 3.31935C16.082 3.46736 16.3659 3.75126 16.5139 4.10859C16.5606 4.22131 16.5993 4.39702 16.6149 4.81364C16.6495 5.73808 17.1266 6.62817 17.9737 7.11723C18.8208 7.60629 19.8302 7.57447 20.6481 7.14219C21.0167 6.94738 21.1882 6.89304 21.3092 6.87712C21.6926 6.82663 22.0804 6.93055 22.3873 7.166C22.4646 7.22531 22.5627 7.32655 22.7198 7.56019C22.8812 7.80037 23.068 8.12303 23.3458 8.60417C23.6236 9.08531 23.8096 9.40845 23.9369 9.66833C24.0607 9.92113 24.0993 10.0568 24.112 10.1533C24.1625 10.5368 24.0586 10.9246 23.8232 11.2315C23.7489 11.3283 23.616 11.4497 23.263 11.6715C22.4797 12.1636 21.9475 13.0218 21.9474 13.9999C21.9474 14.978 22.4796 15.8363 23.263 16.3285C23.616 16.5503 23.7488 16.6717 23.823 16.7685C24.0585 17.0753 24.1624 17.4631 24.1119 17.8466C24.0992 17.9432 24.0606 18.0788 23.9368 18.3316C23.8095 18.5915 23.6235 18.9146 23.3457 19.3958C23.0679 19.8769 22.8811 20.1996 22.7197 20.4397C22.5626 20.6734 22.4645 20.7746 22.3872 20.8339C22.0803 21.0694 21.6925 21.1733 21.3091 21.1228C21.1881 21.1069 21.0166 21.0525 20.648 20.8578C19.8301 20.4255 18.8206 20.3937 17.9736 20.8828C17.1266 21.3719 16.6495 22.2619 16.6149 23.1863C16.5993 23.603 16.5606 23.7787 16.5139 23.8914C16.3659 24.2488 16.082 24.5326 15.7247 24.6807C15.6347 24.7179 15.4979 24.7523 15.2171 24.7715C14.9284 24.7912 14.5555 24.7917 13.9999 24.7917C13.4444 24.7917 13.0715 24.7912 12.7828 24.7715C12.502 24.7523 12.3652 24.7179 12.2752 24.6807C11.9179 24.5326 11.634 24.2488 11.486 23.8914C11.4393 23.7787 11.4006 23.603 11.385 23.1864C11.3504 22.2619 10.8733 21.3718 10.0262 20.8828C9.1791 20.3937 8.16968 20.4255 7.3518 20.8578C6.98322 21.0526 6.81169 21.107 6.69073 21.1229C6.30726 21.1734 5.91945 21.0695 5.6126 20.834C5.53531 20.7747 5.43715 20.6735 5.28013 20.4398C5.11872 20.1996 4.93188 19.877 4.65409 19.3958C4.37631 18.9147 4.19029 18.5916 4.06299 18.3317C3.93916 18.0789 3.90057 17.9433 3.88785 17.8467C3.83737 17.4632 3.94129 17.0754 4.17674 16.7685C4.25101 16.6717 4.38384 16.5504 4.73686 16.3286C5.52014 15.8364 6.05241 14.9782 6.05247 14.0001C6.05252 13.0219 5.52022 12.1635 4.73687 11.6713C4.38393 11.4495 4.25112 11.3282 4.17685 11.2314C3.9414 10.9245 3.83749 10.5367 3.88797 10.1533C3.90069 10.0567 3.93928 9.92105 4.06311 9.66825C4.1904 9.40837 4.37642 9.08523 4.65421 8.60409C4.93199 8.12295 5.11883 7.80029 5.28024 7.56011C5.43726 7.32647 5.53542 7.22523 5.61272 7.16592C5.91956 6.93047 6.30738 6.82655 6.69084 6.87704C6.81181 6.89296 6.98335 6.94731 7.35198 7.14215C8.16982 7.57441 9.17919 7.60623 10.0262 7.1172C10.8733 6.62816 11.3504 5.7381 11.385 4.81369C11.4006 4.39704 11.4393 4.22131 11.486 4.10859C11.634 3.75126 11.9179 3.46736 12.2752 3.31935Z" fill="#111111"/>
</svg>
