<svg width="28" height="28" viewBox="0 0 28 28" fill="none" xmlns="http://www.w3.org/2000/svg">
<path fill-rule="evenodd" clip-rule="evenodd" d="M14 26.7228C21.0266 26.7228 26.7228 21.0266 26.7228 14C26.7228 6.97339 21.0266 1.27719 14 1.27719C6.97339 1.27719 1.27719 6.97339 1.27719 14C1.27719 21.0266 6.97339 26.7228 14 26.7228ZM14 27.7544C21.5963 27.7544 27.7544 21.5963 27.7544 14C27.7544 6.40366 21.5963 0.245614 14 0.245614C6.40366 0.245614 0.245614 6.40366 0.245614 14C0.245614 21.5963 6.40366 27.7544 14 27.7544Z" fill="#000080"/>
<path fill-rule="evenodd" clip-rule="evenodd" d="M14 26.4772C20.891 26.4772 26.4772 20.891 26.4772 14C26.4772 7.10904 20.891 1.52281 14 1.52281C7.10904 1.52281 1.52281 7.10904 1.52281 14C1.52281 20.891 7.10904 26.4772 14 26.4772ZM28 14C28 21.732 21.732 28 14 28C6.26801 28 0 21.732 0 14C0 6.26801 6.26801 0 14 0C21.732 0 28 6.26801 28 14ZM26.7228 14C26.7228 21.0266 21.0266 26.7228 14 26.7228C6.97339 26.7228 1.27719 21.0266 1.27719 14C1.27719 6.97339 6.97339 1.27719 14 1.27719C21.0266 1.27719 26.7228 6.97339 26.7228 14ZM27.7544 14C27.7544 21.5963 21.5963 27.7544 14 27.7544C6.40366 27.7544 0.245614 21.5963 0.245614 14C0.245614 6.40366 6.40366 0.245614 14 0.245614C21.5963 0.245614 27.7544 6.40366 27.7544 14Z" fill="#000080"/>
<path fill-rule="evenodd" clip-rule="evenodd" d="M10.75 10.75V17.75H12.25V10.75H10.75ZM10 9.5C9.72386 9.5 9.5 9.72386 9.5 10V18.5C9.5 18.7761 9.72386 19 10 19H13C13.2761 19 13.5 18.7761 13.5 18.5V10C13.5 9.72386 13.2761 9.5 13 9.5H10Z" fill="#000080"/>
<path fill-rule="evenodd" clip-rule="evenodd" d="M15.75 10.75V17.75H17.25V10.75H15.75ZM15 9.5C14.7239 9.5 14.5 9.72386 14.5 10V18.5C14.5 18.7761 14.7239 19 15 19H18C18.2761 19 18.5 18.7761 18.5 18.5V10C18.5 9.72386 18.2761 9.5 18 9.5H15Z" fill="#000080"/>
</svg>
